<svg xmlns="http://www.w3.org/2000/svg" viewBox="-141.6 -178.7 209.7 216.3" width="629" height="649" role="img" aria-label="Isometrie Telefonhalter 60° mit Anschlägen, Telefon und optischer Achse"><rect x="-141.6" y="-178.7" width="209.7" height="216.3" fill="#FCFCFA"/><g transform="scale(1,-1)"><g   fill="none"
   stroke="#9AA6B4"
   stroke-dasharray="1.5,1"
   stroke-linecap="butt"
   stroke-linejoin="miter"
   stroke-width="0.18"
   transform="scale(1, -1)"
  >
<path id= "1" d=" M 60.1041 -29.5932 L -13.435 -65.8014 " />
<path id= "2" d=" M -13.435 -65.8014 L -133.643 -6.61495 " />
<path d="M-62.579 25.0672 A2.25 1.10782 -180 0 1 -63.238 24.2838" />
<path d="M-63.238 24.2838 A2.25 1.10782 -180 0 1 -62.579 23.5005" />
<path d="M-62.579 23.5005 A2.25 1.10782 -180 0 1 -59.397 23.5005" />
<path id= "6" d=" M -59.397 23.5005 L -56.215 25.0672 " />
<path d="M-56.215 25.0672 A2.25 1.10782 -180 0 1 -55.556 25.8505" />
<path d="M-55.556 25.8505 A2.25 1.10782 -180 0 1 -59.397 26.6339" />
<path id= "9" d=" M -62.579 25.0672 L -59.397 26.6339 " />
<path id= "10" d=" M -26.163 6.96311 L -14.1421 1.04447 " />
<path d="M-14.1421 1.04447 A2.5 1.23091 -180 0 1 -9.87437 1.91485" />
<path d="M-9.87437 1.91485 A2.5 1.23091 -180 0 1 -10.6066 2.78524" />
<path id= "13" d=" M -22.6274 8.70388 L -10.6066 2.78524 " />
<path d="M-22.6274 8.70388 A2.5 1.23091 -180 0 1 -26.163 8.70388" />
<path d="M-26.163 8.70388 A2.5 1.23091 -180 0 1 -26.8952 7.83349" />
<path d="M-26.8952 7.83349 A2.5 1.23091 -180 0 1 -26.163 6.96311" />
<path d="M-127.633 -6.96311 A2.25 1.10782 -180 0 1 -128.292 -7.74646" />
<path d="M-128.292 -7.74646 A2.25 1.10782 -180 0 1 -127.633 -8.52981" />
<path d="M-127.633 -8.52981 A2.25 1.10782 -180 0 1 -124.451 -8.52981" />
<path id= "20" d=" M -124.451 -8.52981 L -121.269 -6.96311 " />
<path d="M-121.269 -6.96311 A2.25 1.10782 -180 0 1 -120.61 -6.17976" />
<path d="M-120.61 -6.17976 A2.25 1.10782 -180 0 1 -124.451 -5.39641" />
<path id= "23" d=" M -127.633 -6.96311 L -124.451 -5.39641 " />
<path id= "24" d=" M -91.2168 -25.0672 L -79.196 -30.9858 " />
<path d="M-79.196 -30.9858 A2.5 1.23091 -180 0 1 -74.9282 -30.1154" />
<path d="M-74.9282 -30.1154 A2.5 1.23091 -180 0 1 -75.6604 -29.245" />
<path id= "27" d=" M -87.6812 -23.3264 L -75.6604 -29.245 " />
<path d="M-87.6812 -23.3264 A2.5 1.23091 -180 0 1 -91.2168 -23.3264" />
<path d="M-91.2168 -23.3264 A2.5 1.23091 -180 0 1 -91.949 -24.1968" />
<path d="M-91.949 -24.1968 A2.5 1.23091 -180 0 1 -91.2168 -25.0672" />
<path id= "31" d=" M 26.8701 -19.1485 L 38.8909 -25.0672 " />
<path d="M38.8909 -25.0672 A2.5 1.23091 -180 0 1 43.1586 -24.1968" />
<path d="M43.1586 -24.1968 A2.5 1.23091 -180 0 1 42.4264 -23.3264" />
<path id= "34" d=" M 30.4056 -17.4078 L 42.4264 -23.3264 " />
<path d="M30.4056 -17.4078 A2.5 1.23091 -180 0 1 26.8701 -17.4078" />
<path d="M26.8701 -17.4078 A2.5 1.23091 -180 0 1 26.1378 -18.2782" />
<path d="M26.1378 -18.2782 A2.5 1.23091 -180 0 1 26.8701 -19.1485" />
<path d="M47.7297 -29.245 A2.25 1.10782 -180 0 1 47.0707 -30.0284" />
<path d="M47.0707 -30.0284 A2.25 1.10782 -180 0 1 47.7297 -30.8117" />
<path d="M47.7297 -30.8117 A2.25 1.10782 -180 0 1 50.9117 -30.8117" />
<path id= "41" d=" M 50.9117 -30.8117 L 54.0937 -29.245 " />
<path d="M54.0937 -29.245 A2.25 1.10782 -180 0 1 54.7527 -28.4617" />
<path d="M54.7527 -28.4617 A2.25 1.10782 -180 0 1 50.9117 -27.6783" />
<path id= "44" d=" M 47.7297 -29.245 L 50.9117 -27.6783 " />
<path id= "45" d=" M -38.1838 -51.1788 L -26.163 -57.0975 " />
<path d="M-26.163 -57.0975 A2.5 1.23091 -180 0 1 -21.8952 -56.2271" />
<path d="M-21.8952 -56.2271 A2.5 1.23091 -180 0 1 -22.6274 -55.3567" />
<path id= "48" d=" M -34.6482 -49.4381 L -22.6274 -55.3567 " />
<path d="M-34.6482 -49.4381 A2.5 1.23091 -180 0 1 -38.1838 -49.4381" />
<path d="M-38.1838 -49.4381 A2.5 1.23091 -180 0 1 -38.916 -50.3084" />
<path d="M-38.916 -50.3084 A2.5 1.23091 -180 0 1 -38.1838 -51.1788" />
<path d="M-17.3241 -61.2753 A2.25 1.10782 -180 0 1 -17.9831 -62.0587" />
<path d="M-17.9831 -62.0587 A2.25 1.10782 -180 0 1 -17.3241 -62.842" />
<path d="M-17.3241 -62.842 A2.25 1.10782 -180 0 1 -14.1421 -62.842" />
<path id= "55" d=" M -14.1421 -62.842 L -10.9602 -61.2753 " />
<path d="M-10.9602 -61.2753 A2.25 1.10782 -180 0 1 -10.3011 -60.492" />
<path d="M-10.3011 -60.492 A2.25 1.10782 -180 0 1 -14.1421 -59.7086" />
<path id= "58" d=" M -17.3241 -61.2753 L -14.1421 -59.7086 " />
<path id= "59" d=" M -13.435 -65.8014 L -13.435 -69.2829 " />
<path id= "60" d=" M -13.435 -69.2829 L 0.17951 -62.5796 " />
<path id= "61" d=" M 0.17951 -62.5796 L -4.51142 -74.8903 " />
<path id= "62" d=" M -1.2173 -71.4676 L 2.629 -61.3735 " />
<path id= "63" d=" M 2.629 -61.3735 L 32.596 -67.9154 " />
<path id= "64" d=" M -13.435 -69.2829 L -124.33 -14.6819 " />
<path id= "65" d=" M -59.397 23.5005 L -59.397 23.1523 " />
<path id= "66" d=" M -56.215 25.0672 L -56.215 23.1523 " />
<path id= "67" d=" M -59.397 26.6339 L -59.397 23.1523 " />
<path id= "68" d=" M -62.579 25.0672 L -62.579 21.5856 " />
<path id= "69" d=" M -26.163 6.96311 L -26.163 5.22233 " />
<path id= "70" d=" M -10.6066 2.78524 L -10.6066 -0.696311 " />
<path id= "71" d=" M -22.6274 8.70388 L -22.6274 5.22233 " />
<path id= "72" d=" M -124.451 -8.52981 L -124.451 -8.87796 " />
<path id= "73" d=" M -121.269 -10.4447 L -123.05 -11.3215 " />
<path id= "74" d=" M -121.269 -6.96311 L -121.269 -10.4447 " />
<path d="M-121.269 -10.4447 A2.25 1.10782 -180 0 1 -120.61 -9.66131" />
<path d="M-120.61 -9.66131 A2.25 1.10782 -180 0 1 -122.025 -8.63254" />
<path id= "77" d=" M -124.451 -5.39641 L -124.451 -8.87796 " />
<path id= "78" d=" M -127.633 -6.96311 L -127.633 -10.4447 " />
<path id= "79" d=" M -91.2168 -25.0672 L -91.2168 -28.5487 " />
<path id= "80" d=" M -79.196 -34.4674 L -91.2168 -28.5487 " />
<path id= "81" d=" M -79.196 -30.9858 L -79.196 -34.4674 " />
<path d="M-79.196 -34.4674 A2.5 1.23091 -180 0 1 -74.9282 -33.597" />
<path d="M-74.9282 -33.597 A2.5 1.23091 -180 0 1 -75.6604 -32.7266" />
<path id= "84" d=" M -75.6604 -29.245 L -75.6604 -32.7266 " />
<path id= "85" d=" M -87.6812 -23.3264 L -87.6812 -26.808 " />
<path id= "86" d=" M -75.6604 -32.7266 L -87.6812 -26.808 " />
<path id= "87" d=" M 26.8701 -19.1485 L 26.8701 -20.8893 " />
<path id= "88" d=" M 42.4264 -23.3264 L 42.4264 -26.808 " />
<path id= "89" d=" M 30.4056 -17.4078 L 30.4056 -20.8893 " />
<path id= "90" d=" M 50.9117 -30.8117 L 50.9117 -31.1599 " />
<path id= "91" d=" M 54.0937 -29.245 L 54.0937 -31.1599 " />
<path id= "92" d=" M 50.9117 -27.6783 L 50.9117 -31.1599 " />
<path id= "93" d=" M 47.7297 -29.245 L 47.7297 -32.7266 " />
<path id= "94" d=" M -38.1838 -51.1788 L -38.1838 -54.6604 " />
<path id= "95" d=" M -26.163 -60.579 L -38.1838 -54.6604 " />
<path id= "96" d=" M -26.163 -57.0975 L -26.163 -60.579 " />
<path d="M-26.163 -60.579 A2.5 1.23091 -180 0 1 -21.8952 -59.7086" />
<path d="M-21.8952 -59.7086 A2.5 1.23091 -180 0 1 -22.6274 -58.8382" />
<path id= "99" d=" M -22.6274 -55.3567 L -22.6274 -58.8382 " />
<path id= "100" d=" M -34.6482 -49.4381 L -34.6482 -52.9196 " />
<path id= "101" d=" M -22.6274 -58.8382 L -34.6482 -52.9196 " />
<path id= "102" d=" M -14.1421 -62.842 L -14.1421 -66.3236 " />
<path id= "103" d=" M -10.9602 -64.7569 L -14.1421 -66.3236 " />
<path id= "104" d=" M -10.9602 -61.2753 L -10.9602 -64.7569 " />
<path d="M-10.9602 -64.7569 A2.25 1.10782 -180 0 1 -10.3011 -63.9735" />
<path d="M-10.3011 -63.9735 A2.25 1.10782 -180 0 1 -14.1421 -63.1902" />
<path id= "107" d=" M -14.1421 -59.7086 L -14.1421 -63.1902 " />
<path id= "108" d=" M -17.3241 -61.2753 L -17.3241 -64.7569 " />
<path id= "109" d=" M -14.1421 -63.1902 L -17.3241 -64.7569 " />
<path id= "110" d=" M 0.17951 -62.5796 L -120.029 -3.39317 " />
<path d="M-91.2168 -26.808 A2.5 1.23091 -180 0 1 -91.949 -27.6783" />
<path d="M-91.949 -27.6783 A2.5 1.23091 -180 0 1 -91.2168 -28.5487" />
<path d="M-87.6812 -26.808 A2.5 1.23091 -180 0 1 -91.2168 -26.808" />
<path d="M-38.1838 -52.9196 A2.5 1.23091 -180 0 1 -38.916 -53.79" />
<path d="M-38.916 -53.79 A2.5 1.23091 -180 0 1 -38.1838 -54.6604" />
<path d="M-34.6482 -52.9196 A2.5 1.23091 -180 0 1 -38.1838 -52.9196" />
<path d="M-17.3241 -66.3236 A2.25 1.10782 -180 0 1 -14.1421 -66.3236" />
<path d="M-17.3241 -64.7569 A2.25 1.10782 -180 0 1 -17.9831 -65.5402" />
<path d="M-17.9831 -65.5402 A2.25 1.10782 -180 0 1 -17.3241 -66.3236" />
<path id= "120" d=" M -71.5755 -41.8702 L -72.6568 -41.3378 " />
<path id= "121" d=" M -71.414 -41.4463 L -72.4953 -40.9139 " />
<path id= "122" d=" M 2.629 -61.3735 L -91.4651 -15.0448 " />
<path id= "123" d=" M -96.3964 -12.6168 L -105.814 -7.97972 " />
<path d="M-101.619 -6.68859 A1.25 0.148341 159.141 0 1 -101.904 -6.6787" />
<path d="M-101.904 -6.6787 A1.25 0.148341 159.141 0 1 -99.5674 -7.56888" />
<path d="M-99.5674 -7.56888 A1.25 0.148341 159.141 0 1 -101.619 -6.68859" />
<path d="M-98.0839 -8.42937 A1.25 0.148341 159.141 0 1 -98.3681 -8.41948" />
<path d="M-98.3681 -8.41948 A1.25 0.148341 159.141 0 1 -96.0319 -9.30965" />
<path d="M-96.0319 -9.30965 A1.25 0.148341 159.141 0 1 -98.0839 -8.42937" />
<path d="M-83.2482 -10.6991 A1.25 0.148341 159.141 0 1 -83.5324 -10.6892" />
<path d="M-83.5324 -10.6892 A1.25 0.148341 159.141 0 1 -81.1963 -11.5794" />
<path d="M-81.1963 -11.5794 A1.25 0.148341 159.141 0 1 -83.2482 -10.6991" />
<path d="M-79.7127 -12.4399 A1.25 0.148341 159.141 0 1 -79.9969 -12.43" />
<path d="M-79.9969 -12.43 A1.25 0.148341 159.141 0 1 -77.6607 -13.3201" />
<path d="M-77.6607 -13.3201 A1.25 0.148341 159.141 0 1 -79.7127 -12.4399" />
<path d="M5.86084 -59.6082 A1.25 0.148341 159.141 0 1 5.57665 -59.5983" />
<path d="M5.57665 -59.5983 A1.25 0.148341 159.141 0 1 7.9128 -60.4885" />
<path d="M7.9128 -60.4885 A1.25 0.148341 159.141 0 1 5.86084 -59.6082" />
<path d="M9.39637 -61.349 A1.25 0.148341 159.141 0 1 9.11218 -61.3391" />
<path d="M9.11218 -61.3391 A1.25 0.148341 159.141 0 1 11.4483 -62.2293" />
<path d="M11.4483 -62.2293 A1.25 0.148341 159.141 0 1 9.39637 -61.349" />
<path d="M11.3028 -61.2807 A1.25 0.148341 159.141 0 1 11.0186 -61.2708" />
<path d="M11.0186 -61.2708 A1.25 0.148341 159.141 0 1 13.3548 -62.161" />
<path d="M13.3548 -62.161 A1.25 0.148341 159.141 0 1 11.3028 -61.2807" />
<path d="M14.8384 -63.0215 A1.25 0.148341 159.141 0 1 14.5542 -63.0116" />
<path d="M14.5542 -63.0116 A1.25 0.148341 159.141 0 1 16.8903 -63.9017" />
<path d="M16.8903 -63.9017 A1.25 0.148341 159.141 0 1 14.8384 -63.0215" />
<path d="M24.7679 -64.0748 A1.25 0.148341 159.141 0 1 26.284 -64.499" />
<path d="M26.284 -64.499 A1.25 0.148341 159.141 0 1 26.171 -64.3811" />
<path d="M27.7675 -65.3595 A1.25 0.148341 159.141 0 1 27.4834 -65.3496" />
<path d="M27.4834 -65.3496 A1.25 0.148341 159.141 0 1 29.8195 -66.2397" />
<path d="M29.8195 -66.2397 A1.25 0.148341 159.141 0 1 27.7675 -65.3595" />
<path d="M-98.0839 2.58997 A1.25 0.148341 159.141 0 1 -98.3681 2.59986" />
<path d="M-98.3681 2.59986 A1.25 0.148341 159.141 0 1 -96.0319 1.70968" />
<path d="M-96.0319 1.70968 A1.25 0.148341 159.141 0 1 -98.0839 2.58997" />
<path d="M-94.5483 0.849189 A1.25 0.148341 159.141 0 1 -94.8325 0.859082" />
<path d="M-94.8325 0.859082 A1.25 0.148341 159.141 0 1 -92.4964 -0.0310917" />
<path d="M-92.4964 -0.0310917 A1.25 0.148341 159.141 0 1 -94.5483 0.849189" />
<path d="M-96.1774 2.65826 A1.25 0.148341 159.141 0 1 -96.4616 2.66815" />
<path d="M-96.4616 2.66815 A1.25 0.148341 159.141 0 1 -94.1254 1.77798" />
<path d="M-94.1254 1.77798 A1.25 0.148341 159.141 0 1 -96.1774 2.65826" />
<path d="M-92.6419 0.917481 A1.25 0.148341 159.141 0 1 -92.926 0.927374" />
<path d="M-92.926 0.927374 A1.25 0.148341 159.141 0 1 -90.5899 0.0371998" />
<path d="M-90.5899 0.0371998 A1.25 0.148341 159.141 0 1 -92.6419 0.917481" />
<path d="M-79.7127 -1.42052 A1.25 0.148341 159.141 0 1 -79.9969 -1.41063" />
<path d="M-79.9969 -1.41063 A1.25 0.148341 159.141 0 1 -77.6607 -2.3008" />
<path d="M-77.6607 -2.3008 A1.25 0.148341 159.141 0 1 -79.7127 -1.42052" />
<path d="M-76.1772 -3.16129 A1.25 0.148341 159.141 0 1 -76.4613 -3.1514" />
<path d="M-76.4613 -3.1514 A1.25 0.148341 159.141 0 1 -74.1252 -4.04158" />
<path d="M-74.1252 -4.04158 A1.25 0.148341 159.141 0 1 -76.1772 -3.16129" />
<path d="M-77.8062 -1.35223 A1.25 0.148341 159.141 0 1 -78.0904 -1.34233" />
<path d="M-78.0904 -1.34233 A1.25 0.148341 159.141 0 1 -75.7543 -2.23251" />
<path d="M-75.7543 -2.23251 A1.25 0.148341 159.141 0 1 -77.8062 -1.35223" />
<path d="M-74.2707 -3.093 A1.25 0.148341 159.141 0 1 -74.5549 -3.08311" />
<path d="M-74.5549 -3.08311 A1.25 0.148341 159.141 0 1 -72.2187 -3.97328" />
<path d="M-72.2187 -3.97328 A1.25 0.148341 159.141 0 1 -74.2707 -3.093" />
<path d="M9.39637 -50.3296 A1.25 0.148341 159.141 0 1 9.11218 -50.3197" />
<path d="M9.11218 -50.3197 A1.25 0.148341 159.141 0 1 11.4483 -51.2099" />
<path d="M11.4483 -51.2099 A1.25 0.148341 159.141 0 1 9.39637 -50.3296" />
<path d="M12.9319 -52.0704 A1.25 0.148341 159.141 0 1 12.6477 -52.0605" />
<path d="M12.6477 -52.0605 A1.25 0.148341 159.141 0 1 14.9839 -52.9507" />
<path d="M14.9839 -52.9507 A1.25 0.148341 159.141 0 1 12.9319 -52.0704" />
<path d="M14.8384 -52.0021 A1.25 0.148341 159.141 0 1 14.5542 -51.9922" />
<path d="M14.5542 -51.9922 A1.25 0.148341 159.141 0 1 16.8903 -52.8824" />
<path d="M16.8903 -52.8824 A1.25 0.148341 159.141 0 1 14.8384 -52.0021" />
<path d="M18.3739 -53.7429 A1.25 0.148341 159.141 0 1 18.0897 -53.733" />
<path d="M18.0897 -53.733 A1.25 0.148341 159.141 0 1 20.4259 -54.6232" />
<path d="M20.4259 -54.6232 A1.25 0.148341 159.141 0 1 18.3739 -53.7429" />
<path d="M27.7675 -54.3401 A1.25 0.148341 159.141 0 1 27.4834 -54.3302" />
<path d="M27.4834 -54.3302 A1.25 0.148341 159.141 0 1 29.8195 -55.2204" />
<path d="M29.8195 -55.2204 A1.25 0.148341 159.141 0 1 27.7675 -54.3401" />
<path d="M31.3031 -56.0809 A1.25 0.148341 159.141 0 1 31.0189 -56.071" />
<path d="M31.0189 -56.071 A1.25 0.148341 159.141 0 1 33.355 -56.9612" />
<path d="M33.355 -56.9612 A1.25 0.148341 159.141 0 1 31.3031 -56.0809" />
<path d="M33.2095 -56.0126 A1.25 0.148341 159.141 0 1 32.9254 -56.0027" />
<path d="M32.9254 -56.0027 A1.25 0.148341 159.141 0 1 35.2615 -56.8929" />
<path d="M35.2615 -56.8929 A1.25 0.148341 159.141 0 1 33.2095 -56.0126" />
<path d="M36.7451 -57.7534 A1.25 0.148341 159.141 0 1 36.4609 -57.7435" />
<path d="M36.4609 -57.7435 A1.25 0.148341 159.141 0 1 38.797 -58.6337" />
<path d="M38.797 -58.6337 A1.25 0.148341 159.141 0 1 36.7451 -57.7534" />
<path id= "201" d=" M 5.30512 -71.8865 L 0.406144 -70.817 " />
<path id= "202" d=" M 0.406144 -70.817 L 2.52746 -71.8615 " />
<path id= "203" d=" M 7.42644 -72.9309 L 2.52746 -71.8615 " />
<path id= "204" d=" M 5.30512 -71.8865 L 7.42644 -72.9309 " />
<path id= "205" d=" M 10.6084 -64.5802 L 7.42644 -72.9309 " />
<path id= "206" d=" M 5.70944 -63.5108 L 2.52746 -71.8615 " />
<path id= "207" d=" M 6.56794 -63.6982 L 5.70944 -63.5108 " />
<path id= "208" d=" M 6.56794 -63.6982 L 6.07297 -64.9972 " />
<path id= "209" d=" M 6.07297 -64.9972 L 9.25495 -65.6918 " />
<path id= "210" d=" M 9.74992 -64.3928 L 9.25495 -65.6918 " />
<path id= "211" d=" M 10.6084 -64.5802 L 9.74992 -64.3928 " />
<path id= "212" d=" M 13.4369 -65.9729 L 12.0029 -65.6598 " />
<path id= "213" d=" M 12.215 -65.1031 L 12.0029 -65.6598 " />
<path id= "214" d=" M 10.184 -64.6597 L 12.215 -65.1031 " />
<path id= "215" d=" M 10.184 -64.6597 L 9.97186 -65.2164 " />
<path id= "216" d=" M 9.97186 -65.2164 L 8.53787 -64.9034 " />
<path id= "217" d=" M 9.59853 -62.1198 L 8.53787 -64.9034 " />
<path id= "218" d=" M 14.4975 -63.1893 L 9.59853 -62.1198 " />
<path id= "219" d=" M 14.4975 -63.1893 L 13.4369 -65.9729 " />
<path d="M9.74992 -64.3928 A3 0.356018 -20.859 0 0 12.023 -65.6359" />
<path d="M12.023 -65.6359 A3 0.356018 -20.859 0 0 12.0029 -65.6598" />
<path id= "222" d=" M 10.6084 -64.5802 L 13.4369 -65.9729 " />
<path d="M9.97186 -65.2164 A3 0.356018 -20.859 0 0 6.56794 -63.6982" />
<path id= "224" d=" M 5.70944 -63.5108 L 8.53787 -64.9034 " />
<path d="M10.184 -64.6597 A3 0.356018 -20.859 0 0 6.62835 -62.9428" />
<path d="M6.62835 -62.9428 A3 0.356018 -20.859 1 0 12.2351 -65.0792" />
<path d="M12.2351 -65.0792 A3 0.356018 -20.859 0 0 12.215 -65.1031" />
<path d="M10.5631 -64.5681 A1.6 0.189876 -20.859 0 0 7.93659 -63.4413" />
<path d="M7.93659 -63.4413 A1.6 0.189876 -20.859 1 0 10.9269 -64.5807" />
<path d="M10.9269 -64.5807 A1.6 0.189876 -20.859 0 0 10.5631 -64.5681" />
<path d="M9.56055 -61.3364 A1.6 0.189876 -20.859 0 0 11.7754 -62.3539" />
<path d="M11.7754 -62.3539 A1.6 0.189876 -20.859 0 0 11.4116 -62.3412" />
<path d="M8.87864 -61.1875 A1.6 0.189876 -20.859 0 0 9.56055 -61.3364" />
<path d="M11.4116 -62.3412 A1.6 0.189876 -20.859 0 0 8.78512 -61.2145" />
<path d="M8.78512 -61.2145 A1.6 0.189876 -20.859 0 0 8.87864 -61.1875" />
<path d="M6.07297 -64.9972 A3 0.356018 -20.859 0 0 5.92124 -64.7985" />
<path d="M5.92124 -64.7985 A3 0.356018 -20.859 0 0 9.25495 -65.6918" />
<path id= "238" d=" M 9.54776 -60.7522 L 5.30512 -71.8865 " />
<path id= "239" d=" M 4.64878 -59.6827 L 0.406144 -70.817 " />
<path id= "240" d=" M 9.54776 -60.7522 L 4.64878 -59.6827 " />
<path id= "241" d=" M 9.54776 -60.7522 L 14.4975 -63.1893 " />
<path id= "242" d=" M 4.64878 -59.6827 L 9.59853 -62.1198 " />
<path id= "243" d=" M 23.6763 -75.897 L 18.7773 -74.8275 " />
<path id= "244" d=" M 18.7773 -74.8275 L 20.8986 -75.872 " />
<path id= "245" d=" M 25.7976 -76.9414 L 20.8986 -75.872 " />
<path id= "246" d=" M 23.6763 -75.897 L 25.7976 -76.9414 " />
<path id= "247" d=" M 28.9796 -68.5907 L 25.7976 -76.9414 " />
<path id= "248" d=" M 24.0806 -67.5213 L 20.8986 -75.872 " />
<path id= "249" d=" M 24.9391 -67.7087 L 24.0806 -67.5213 " />
<path id= "250" d=" M 24.9391 -67.7087 L 24.4441 -69.0077 " />
<path id= "251" d=" M 24.4441 -69.0077 L 27.6261 -69.7023 " />
<path id= "252" d=" M 28.1211 -68.4033 L 27.6261 -69.7023 " />
<path id= "253" d=" M 28.9796 -68.5907 L 28.1211 -68.4033 " />
<path id= "254" d=" M 31.808 -69.9833 L 30.374 -69.6703 " />
<path id= "255" d=" M 30.5862 -69.1136 L 30.374 -69.6703 " />
<path id= "256" d=" M 28.5552 -68.6702 L 30.5862 -69.1136 " />
<path id= "257" d=" M 28.5552 -68.6702 L 28.343 -69.2269 " />
<path id= "258" d=" M 28.343 -69.2269 L 26.909 -68.9139 " />
<path id= "259" d=" M 27.9697 -66.1303 L 26.909 -68.9139 " />
<path id= "260" d=" M 32.8687 -67.1998 L 27.9697 -66.1303 " />
<path id= "261" d=" M 32.0702 -69.2954 L 31.808 -69.9833 " />
<path d="M28.1211 -68.4033 A3 0.356018 -20.859 0 0 30.3941 -69.6464" />
<path d="M30.3941 -69.6464 A3 0.356018 -20.859 0 0 30.374 -69.6703" />
<path id= "264" d=" M 28.9796 -68.5907 L 31.808 -69.9833 " />
<path d="M28.343 -69.2269 A3 0.356018 -20.859 0 0 24.9391 -67.7087" />
<path id= "266" d=" M 24.0806 -67.5213 L 26.909 -68.9139 " />
<path d="M28.5552 -68.6702 A3 0.356018 -20.859 0 0 24.9995 -66.9533" />
<path d="M24.9995 -66.9533 A3 0.356018 -20.859 1 0 30.6063 -69.0897" />
<path d="M30.6063 -69.0897 A3 0.356018 -20.859 0 0 30.5862 -69.1136" />
<path d="M28.9343 -68.5786 A1.6 0.189876 -20.859 0 0 26.3078 -67.4518" />
<path d="M26.3078 -67.4518 A1.6 0.189876 -20.859 1 0 29.298 -68.5912" />
<path d="M29.298 -68.5912 A1.6 0.189876 -20.859 0 0 28.9343 -68.5786" />
<path d="M27.9317 -65.3469 A1.6 0.189876 -20.859 0 0 30.1466 -66.3644" />
<path d="M30.1466 -66.3644 A1.6 0.189876 -20.859 0 0 29.7828 -66.3517" />
<path d="M27.2498 -65.198 A1.6 0.189876 -20.859 0 0 27.9317 -65.3469" />
<path d="M29.7828 -66.3517 A1.6 0.189876 -20.859 0 0 27.1563 -65.2249" />
<path d="M27.1563 -65.2249 A1.6 0.189876 -20.859 0 0 27.2498 -65.198" />
<path d="M24.4441 -69.0077 A3 0.356018 -20.859 0 0 24.2924 -68.809" />
<path d="M24.2924 -68.809 A3 0.356018 -20.859 0 0 27.6261 -69.7023" />
<path id= "280" d=" M 27.1204 -66.8583 L 23.6763 -75.897 " />
<path id= "281" d=" M 22.6522 -64.6583 L 18.7773 -74.8275 " />
<path id= "282" d=" M 23.02 -63.6932 L 27.9697 -66.1303 " />
<path d="M-104.367 -8.25857 A3 0.356018 159.141 0 1 -104.387 -8.28243" />
<path d="M-104.387 -8.28243 A3 0.356018 159.141 0 1 -104.388 -8.31363" />
<path d="M-100.155 -10.214 A3 0.356018 159.141 0 1 -98.7807 -10.4189" />
<path d="M-98.7807 -10.4189 A3 0.356018 159.141 0 1 -102.336 -8.70194" />
<path d="M-102.512 -9.16216 A1.6 0.189876 159.141 0 1 -100.089 -9.92035" />
<path d="M-100.089 -9.92035 A1.6 0.189876 159.141 0 1 -102.402 -8.87403" />
<path d="M-99.3339 -7.72045 A1.6 0.189876 159.141 0 1 -99.2404 -7.6935" />
<path d="M-99.2404 -7.6935 A1.6 0.189876 159.141 0 1 -101.867 -6.56674" />
<path d="M-100.016 -7.57159 A1.6 0.189876 159.141 0 1 -99.3339 -7.72045" />
<path d="M-101.867 -6.56674 A1.6 0.189876 159.141 0 1 -102.231 -6.55408" />
<path d="M-102.231 -6.55408 A1.6 0.189876 159.141 0 1 -100.016 -7.57159" />
<path d="M-102.821 -11.3813 A3 0.356018 159.141 0 1 -99.4878 -12.2746" />
<path d="M-99.4878 -12.2746 A3 0.356018 159.141 0 1 -99.6395 -12.0759" />
<path id= "296" d=" M -100.003 -8.15576 L -104.246 -19.29 " />
<path id= "297" d=" M -95.104 -9.22522 L -100.003 -8.15576 " />
<path id= "298" d=" M -100.003 -8.15576 L -104.953 -5.71867 " />
<path d="M-85.9961 -12.2691 A3 0.356018 159.141 0 1 -86.0162 -12.2929" />
<path d="M-86.0162 -12.2929 A3 0.356018 159.141 0 1 -86.0171 -12.3241" />
<path d="M-81.7836 -14.2245 A3 0.356018 159.141 0 1 -80.4095 -14.4293" />
<path d="M-80.4095 -14.4293 A3 0.356018 159.141 0 1 -83.9651 -12.7124" />
<path d="M-84.1405 -13.1726 A1.6 0.189876 159.141 0 1 -81.7177 -13.9308" />
<path d="M-81.7177 -13.9308 A1.6 0.189876 159.141 0 1 -84.0307 -12.8845" />
<path d="M-80.9627 -11.7309 A1.6 0.189876 159.141 0 1 -80.8692 -11.704" />
<path d="M-80.8692 -11.704 A1.6 0.189876 159.141 0 1 -83.4957 -10.5772" />
<path d="M-81.6446 -11.5821 A1.6 0.189876 159.141 0 1 -80.9627 -11.7309" />
<path d="M-83.4957 -10.5772 A1.6 0.189876 159.141 0 1 -83.8595 -10.5646" />
<path d="M-83.8595 -10.5646 A1.6 0.189876 159.141 0 1 -81.6446 -11.5821" />
<path d="M-84.4503 -15.3918 A3 0.356018 159.141 0 1 -81.1166 -16.285" />
<path d="M-81.1166 -16.285 A3 0.356018 159.141 0 1 -81.2683 -16.0864" />
<path id= "312" d=" M -81.6318 -12.1662 L -85.8745 -23.3005 " />
<path id= "313" d=" M -76.7329 -13.2357 L -81.6318 -12.1662 " />
<path id= "314" d=" M -81.6318 -12.1662 L -86.5816 -9.72915 " />
<path id= "315" d=" M -6.91694 -62.1831 L -9.74537 -69.6059 " />
<path id= "316" d=" M 37.1739 -71.8083 L -6.91694 -62.1831 " />
<path id= "317" d=" M -78.5006 -17.875 L -85.7255 -16.2978 " />
<path id= "318" d=" M -96.8718 -13.8645 L -104.097 -12.2873 " />
<path id= "319" d=" M -6.91694 -62.1831 L -111.569 -10.6561 " />
<path id= "320" d=" M -70.7069 -39.5906 L -71.7882 -39.0582 " />
<path d="M-69.5215 -33.1095 A6 0.712036 159.141 0 1 -68.4002 -33.5368" />
<path d="M-73.785 -29.1329 A6 0.712036 159.141 0 1 -62.5715 -33.4058" />
<path d="M-68.6025 -31.0605 A0.6 0.0712036 159.141 0 1 -68.7389 -31.0557" />
<path d="M-68.7389 -31.0557 A0.6 0.0712036 159.141 0 1 -67.6176 -31.483" />
<path d="M-67.6176 -31.483 A0.6 0.0712036 159.141 0 1 -68.6025 -31.0605" />
</g>
<g   fill="none"
   stroke="#9AA6B4"
   stroke-dasharray="1.5,1"
   stroke-linecap="butt"
   stroke-linejoin="miter"
   stroke-width="0.18"
   transform="scale(1, -1)"
  >
<path id= "1" d=" M -55.556 25.8505 L -55.556 22.369 " />
<path id= "2" d=" M -9.87437 1.91485 L -9.87437 -1.5667 " />
<path id= "3" d=" M -120.61 -6.17976 L -120.61 -9.66131 " />
<path id= "4" d=" M -74.9282 -30.1154 L -74.9282 -33.597 " />
<path id= "5" d=" M 43.1586 -24.1968 L 43.1586 -27.6783 " />
<path id= "6" d=" M 54.7527 -28.4617 L 54.7527 -31.9432 " />
<path id= "7" d=" M -21.8952 -56.2271 L -21.8952 -59.7086 " />
<path id= "8" d=" M -10.3011 -60.492 L -10.3011 -63.9735 " />
<path id= "9" d=" M -98.3681 2.59986 L -101.904 -6.6787 " />
<path id= "10" d=" M -96.0319 1.70968 L -99.5674 -7.56888 " />
<path id= "11" d=" M -94.8325 0.859082 L -98.3681 -8.41948 " />
<path id= "12" d=" M -92.4964 -0.0310917 L -96.0319 -9.30965 " />
<path id= "13" d=" M -96.4616 2.66815 L -99.9971 -6.61041 " />
<path id= "14" d=" M -94.1254 1.77798 L -97.661 -7.50058 " />
<path id= "15" d=" M -92.926 0.927374 L -96.4616 -8.35119 " />
<path id= "16" d=" M -90.5899 0.0371998 L -94.1254 -9.24136 " />
<path id= "17" d=" M -79.9969 -1.41063 L -83.5324 -10.6892 " />
<path id= "18" d=" M -77.6607 -2.3008 L -81.1963 -11.5794 " />
<path id= "19" d=" M -76.4613 -3.1514 L -79.9969 -12.43 " />
<path id= "20" d=" M -74.1252 -4.04158 L -77.6607 -13.3201 " />
<path id= "21" d=" M -78.0904 -1.34233 L -81.6259 -10.6209 " />
<path id= "22" d=" M -75.7543 -2.23251 L -79.2898 -11.5111 " />
<path id= "23" d=" M -74.5549 -3.08311 L -78.0904 -12.3617 " />
<path id= "24" d=" M -72.2187 -3.97328 L -75.7543 -13.2518 " />
<path id= "25" d=" M 9.11218 -50.3197 L 5.57665 -59.5983 " />
<path id= "26" d=" M 11.4483 -51.2099 L 7.9128 -60.4885 " />
<path id= "27" d=" M 12.6477 -52.0605 L 9.11218 -61.3391 " />
<path id= "28" d=" M 14.9839 -52.9507 L 11.4483 -62.2293 " />
<path id= "29" d=" M 14.5542 -51.9922 L 11.0186 -61.2708 " />
<path id= "30" d=" M 16.8903 -52.8824 L 13.3548 -62.161 " />
<path id= "31" d=" M 18.0897 -53.733 L 14.5542 -63.0116 " />
<path id= "32" d=" M 20.4259 -54.6232 L 16.8903 -63.9017 " />
<path id= "33" d=" M 27.4834 -54.3302 L 23.9478 -63.6088 " />
<path id= "34" d=" M 29.8195 -55.2204 L 26.284 -64.499 " />
<path id= "35" d=" M 31.0189 -56.071 L 27.4834 -65.3496 " />
<path id= "36" d=" M 33.355 -56.9612 L 29.8195 -66.2397 " />
<path id= "37" d=" M 32.9254 -56.0027 L 29.3898 -65.2813 " />
<path id= "38" d=" M 35.2615 -56.8929 L 31.726 -66.1715 " />
<path id= "39" d=" M 36.4609 -57.7435 L 32.9254 -67.0221 " />
<path id= "40" d=" M 38.797 -58.6337 L 35.2615 -67.9122 " />
<path id= "41" d=" M -63.238 24.2838 L -63.238 20.8023 " />
<path id= "42" d=" M -26.8952 7.83349 L -26.8952 4.35194 " />
<path id= "43" d=" M -128.292 -7.74646 L -128.292 -11.228 " />
<path id= "44" d=" M -91.949 -24.1968 L -91.949 -27.6783 " />
<path id= "45" d=" M 26.1378 -18.2782 L 26.1378 -21.7597 " />
<path id= "46" d=" M 47.0707 -30.0284 L 47.0707 -33.5099 " />
<path id= "47" d=" M -38.916 -50.3084 L -38.916 -53.79 " />
<path id= "48" d=" M -17.9831 -62.0587 L -17.9831 -65.5402 " />
<path id= "49" d=" M 8.78512 -61.2145 L 7.93659 -63.4413 " />
<path id= "50" d=" M 11.7754 -62.3539 L 10.9269 -64.5807 " />
<path id= "51" d=" M 6.62835 -62.9428 L 5.92124 -64.7985 " />
<path id= "52" d=" M 12.2351 -65.0792 L 12.023 -65.6359 " />
<path id= "53" d=" M 27.1563 -65.2249 L 26.3078 -67.4518 " />
<path id= "54" d=" M 30.1466 -66.3644 L 29.298 -68.5912 " />
<path id= "55" d=" M 24.9995 -66.9533 L 24.2924 -68.809 " />
<path id= "56" d=" M 30.6063 -69.0897 L 30.3941 -69.6464 " />
<path id= "57" d=" M -102.231 -6.55408 L -103.079 -8.78093 " />
<path id= "58" d=" M -99.2404 -7.6935 L -100.089 -9.92035 " />
<path id= "59" d=" M -104.387 -8.28243 L -104.6 -8.83915 " />
<path id= "60" d=" M -98.7807 -10.4189 L -99.4878 -12.2746 " />
<path id= "61" d=" M -83.8595 -10.5646 L -84.708 -12.7914 " />
<path id= "62" d=" M -80.8692 -11.704 L -81.7177 -13.9308 " />
<path id= "63" d=" M -86.0162 -12.2929 L -86.2284 -12.8496 " />
<path id= "64" d=" M -80.4095 -14.4293 L -81.1166 -16.285 " />
<path id= "65" d=" M -68.7389 -31.0557 L -69.017 -31.7855 " />
<path id= "66" d=" M -67.6176 -31.483 L -67.8956 -32.2128 " />
</g>
<g   fill="none"
   stroke="#1B2430"
   stroke-linecap="butt"
   stroke-linejoin="miter"
   stroke-width="0.35"
   transform="scale(1, -1)"
  >
<path id= "1" d=" M -73.785 -29.1329 L -74.3153 -30.5247 " />
<path id= "2" d=" M -62.5715 -33.4058 L -63.1018 -34.7976 " />
<path id= "3" d=" M -69.017 -31.7855 L -121.772 -170.234 " />
<path id= "4" d=" M -67.8956 -32.2128 L -120.651 -170.661 " />
</g>
<g   fill="none"
   stroke="#1B2430"
   stroke-linecap="butt"
   stroke-linejoin="miter"
   stroke-width="0.35"
   transform="scale(1, -1)"
  >
<path id= "1" d=" M 60.1041 -29.5932 L -60.1041 29.5932 " />
<path id= "2" d=" M -60.1041 29.5932 L -133.643 -6.61495 " />
<path id= "3" d=" M 60.1041 -33.0748 L -60.1041 26.1116 " />
<path id= "4" d=" M 60.1041 -33.0748 L 60.1041 -29.5932 " />
<path id= "5" d=" M -60.1041 26.1116 L -60.1041 29.5932 " />
<path id= "6" d=" M -4.51142 -74.8903 L -2.6743 -75.2914 " />
<path id= "7" d=" M -2.6743 -75.2914 L -1.2173 -71.4676 " />
<path id= "8" d=" M 32.596 -67.9154 L 51.6188 -72.0681 " />
<path id= "9" d=" M 51.6188 -72.0681 L 51.6188 -37.2526 " />
<path id= "10" d=" M 51.6188 -37.2526 L 60.1041 -33.0748 " />
<path id= "11" d=" M -133.643 -6.61495 L -133.643 -10.0965 " />
<path id= "12" d=" M -133.643 -10.0965 L -120.029 -3.39317 " />
<path id= "13" d=" M -120.029 -3.39317 L -124.72 -15.7039 " />
<path id= "14" d=" M -124.72 -15.7039 L -122.882 -16.105 " />
<path id= "15" d=" M -122.882 -16.105 L -117.579 -2.18712 " />
<path id= "16" d=" M -117.579 -2.18712 L -68.5894 -12.8817 " />
<path id= "17" d=" M -68.5894 -12.8817 L -68.5894 21.9338 " />
<path id= "18" d=" M -68.5894 21.9338 L -60.1041 26.1116 " />
<path id= "19" d=" M -124.33 -14.6819 L -133.643 -10.0965 " />
<path id= "20" d=" M -59.397 23.1523 L -59.397 20.0189 " />
<path id= "21" d=" M -56.215 21.5856 L -59.397 20.0189 " />
<path id= "22" d=" M -56.215 23.1523 L -56.215 21.5856 " />
<path d="M-56.215 21.5856 A2.25 1.10782 -180 0 1 -55.556 22.369" />
<path d="M-55.556 22.369 A2.25 1.10782 -180 0 1 -59.397 23.1523" />
<path id= "25" d=" M -59.397 23.1523 L -62.579 21.5856 " />
<path id= "26" d=" M -26.163 5.22233 L -26.163 3.48155 " />
<path id= "27" d=" M -14.1421 -2.43709 L -26.163 3.48155 " />
<path id= "28" d=" M -14.1421 1.04447 L -14.1421 -2.43709 " />
<path d="M-14.1421 -2.43709 A2.5 1.23091 -180 0 1 -9.87437 -1.5667" />
<path d="M-9.87437 -1.5667 A2.5 1.23091 -180 0 1 -10.6066 -0.696311" />
<path id= "31" d=" M -10.6066 -0.696311 L -22.6274 5.22233 " />
<path id= "32" d=" M -124.451 -8.87796 L -124.451 -12.0114 " />
<path id= "33" d=" M -123.05 -11.3215 L -124.451 -12.0114 " />
<path d="M-122.025 -8.63254 A2.25 1.10782 -180 0 1 -124.451 -8.87796" />
<path id= "35" d=" M -124.451 -8.87796 L -127.633 -10.4447 " />
<path id= "36" d=" M 26.8701 -20.8893 L 26.8701 -22.6301 " />
<path id= "37" d=" M 38.8909 -28.5487 L 26.8701 -22.6301 " />
<path id= "38" d=" M 38.8909 -25.0672 L 38.8909 -28.5487 " />
<path d="M38.8909 -28.5487 A2.5 1.23091 -180 0 1 43.1586 -27.6783" />
<path d="M43.1586 -27.6783 A2.5 1.23091 -180 0 1 42.4264 -26.808" />
<path id= "41" d=" M 42.4264 -26.808 L 30.4056 -20.8893 " />
<path id= "42" d=" M 50.9117 -31.1599 L 50.9117 -34.2933 " />
<path id= "43" d=" M 54.0937 -32.7266 L 50.9117 -34.2933 " />
<path id= "44" d=" M 54.0937 -31.1599 L 54.0937 -32.7266 " />
<path d="M54.0937 -32.7266 A2.25 1.10782 -180 0 1 54.7527 -31.9432" />
<path d="M54.7527 -31.9432 A2.25 1.10782 -180 0 1 50.9117 -31.1599" />
<path id= "47" d=" M 50.9117 -31.1599 L 47.7297 -32.7266 " />
<path id= "48" d=" M 51.6188 -37.2526 L -68.5894 21.9338 " />
<path d="M-62.579 20.0189 A2.25 1.10782 -180 0 1 -59.397 20.0189" />
<path d="M-62.579 21.5856 A2.25 1.10782 -180 0 1 -63.238 20.8023" />
<path d="M-63.238 20.8023 A2.25 1.10782 -180 0 1 -62.579 20.0189" />
<path d="M-26.163 5.22233 A2.5 1.23091 -180 0 1 -26.8952 4.35194" />
<path d="M-26.8952 4.35194 A2.5 1.23091 -180 0 1 -26.163 3.48155" />
<path d="M-22.6274 5.22233 A2.5 1.23091 -180 0 1 -26.163 5.22233" />
<path d="M26.8701 -20.8893 A2.5 1.23091 -180 0 1 26.1378 -21.7597" />
<path d="M26.1378 -21.7597 A2.5 1.23091 -180 0 1 26.8701 -22.6301" />
<path d="M30.4056 -20.8893 A2.5 1.23091 -180 0 1 26.8701 -20.8893" />
<path d="M47.7297 -34.2933 A2.25 1.10782 -180 0 1 50.9117 -34.2933" />
<path d="M47.7297 -32.7266 A2.25 1.10782 -180 0 1 47.0707 -33.5099" />
<path d="M47.0707 -33.5099 A2.25 1.10782 -180 0 1 47.7297 -34.2933" />
<path d="M-127.633 -12.0114 A2.25 1.10782 -180 0 1 -124.451 -12.0114" />
<path d="M-127.633 -10.4447 A2.25 1.10782 -180 0 1 -128.292 -11.228" />
<path d="M-128.292 -11.228 A2.25 1.10782 -180 0 1 -127.633 -12.0114" />
<path id= "64" d=" M -4.51142 -74.8903 L -71.5755 -41.8702 " />
<path id= "65" d=" M -72.6568 -41.3378 L -124.72 -15.7039 " />
<path id= "66" d=" M -2.6743 -75.2914 L -71.414 -41.4463 " />
<path id= "67" d=" M -72.4953 -40.9139 L -122.882 -16.105 " />
<path id= "68" d=" M -91.4651 -15.0448 L -96.3964 -12.6168 " />
<path id= "69" d=" M -105.814 -7.97972 L -117.579 -2.18712 " />
<path id= "70" d=" M 51.6188 -72.0681 L -68.5894 -12.8817 " />
<path d="M-99.7129 -6.6203 A1.25 0.148341 159.141 0 1 -99.9971 -6.61041" />
<path d="M-99.9971 -6.61041 A1.25 0.148341 159.141 0 1 -97.661 -7.50058" />
<path d="M-97.661 -7.50058 A1.25 0.148341 159.141 0 1 -99.7129 -6.6203" />
<path d="M-96.1774 -8.36108 A1.25 0.148341 159.141 0 1 -96.4616 -8.35119" />
<path d="M-96.4616 -8.35119 A1.25 0.148341 159.141 0 1 -94.1254 -9.24136" />
<path d="M-94.1254 -9.24136 A1.25 0.148341 159.141 0 1 -96.1774 -8.36108" />
<path d="M-81.3418 -10.6308 A1.25 0.148341 159.141 0 1 -81.6259 -10.6209" />
<path d="M-81.6259 -10.6209 A1.25 0.148341 159.141 0 1 -79.2898 -11.5111" />
<path d="M-79.2898 -11.5111 A1.25 0.148341 159.141 0 1 -81.3418 -10.6308" />
<path d="M-77.8062 -12.3716 A1.25 0.148341 159.141 0 1 -78.0904 -12.3617" />
<path d="M-78.0904 -12.3617 A1.25 0.148341 159.141 0 1 -75.7543 -13.2518" />
<path d="M-75.7543 -13.2518 A1.25 0.148341 159.141 0 1 -77.8062 -12.3716" />
<path d="M24.232 -63.6187 A1.25 0.148341 159.141 0 1 23.9478 -63.6088" />
<path d="M23.9478 -63.6088 A1.25 0.148341 159.141 0 1 24.7679 -64.0748" />
<path d="M26.171 -64.3811 A1.25 0.148341 159.141 0 1 24.232 -63.6187" />
<path d="M29.674 -65.2912 A1.25 0.148341 159.141 0 1 29.3898 -65.2813" />
<path d="M29.3898 -65.2813 A1.25 0.148341 159.141 0 1 31.726 -66.1715" />
<path d="M31.726 -66.1715 A1.25 0.148341 159.141 0 1 29.674 -65.2912" />
<path d="M33.2095 -67.0319 A1.25 0.148341 159.141 0 1 32.9254 -67.0221" />
<path d="M32.9254 -67.0221 A1.25 0.148341 159.141 0 1 35.2615 -67.9122" />
<path d="M35.2615 -67.9122 A1.25 0.148341 159.141 0 1 33.2095 -67.0319" />
<path id= "92" d=" M 32.8687 -67.1998 L 32.0702 -69.2954 " />
<path id= "93" d=" M 27.9189 -64.7627 L 27.1204 -66.8583 " />
<path id= "94" d=" M 23.02 -63.6932 L 22.6522 -64.6583 " />
<path id= "95" d=" M 27.9189 -64.7627 L 23.02 -63.6932 " />
<path id= "96" d=" M 27.9189 -64.7627 L 32.8687 -67.1998 " />
<path id= "97" d=" M -99.3467 -20.3595 L -104.246 -19.29 " />
<path id= "98" d=" M -104.246 -19.29 L -106.367 -18.2456 " />
<path id= "99" d=" M -101.468 -19.315 L -106.367 -18.2456 " />
<path id= "100" d=" M -99.3467 -20.3595 L -101.468 -19.315 " />
<path id= "101" d=" M -98.286 -10.9643 L -101.468 -19.315 " />
<path id= "102" d=" M -103.185 -9.89486 L -106.367 -18.2456 " />
<path id= "103" d=" M -102.327 -10.0823 L -103.185 -9.89486 " />
<path id= "104" d=" M -102.327 -10.0823 L -102.821 -11.3813 " />
<path id= "105" d=" M -102.821 -11.3813 L -99.6395 -12.0759 " />
<path id= "106" d=" M -99.1445 -10.7769 L -99.6395 -12.0759 " />
<path id= "107" d=" M -98.286 -10.9643 L -99.1445 -10.7769 " />
<path id= "108" d=" M -101.114 -9.5717 L -102.548 -9.25866 " />
<path id= "109" d=" M -102.336 -8.70194 L -102.548 -9.25866 " />
<path id= "110" d=" M -104.367 -8.25857 L -102.336 -8.70194 " />
<path id= "111" d=" M -104.367 -8.25857 L -104.579 -8.81528 " />
<path id= "112" d=" M -104.579 -8.81528 L -106.013 -8.50224 " />
<path id= "113" d=" M -104.953 -5.71867 L -106.013 -8.50224 " />
<path id= "114" d=" M -100.054 -6.78813 L -104.953 -5.71867 " />
<path id= "115" d=" M -100.054 -6.78813 L -101.114 -9.5717 " />
<path d="M-99.1445 -10.7769 A3 0.356018 159.141 0 1 -102.548 -9.25866" />
<path id= "117" d=" M -98.286 -10.9643 L -101.114 -9.5717 " />
<path d="M-104.579 -8.81528 A3 0.356018 159.141 0 1 -104.6 -8.83915" />
<path d="M-104.6 -8.83915 A3 0.356018 159.141 0 1 -102.327 -10.0823" />
<path id= "120" d=" M -103.185 -9.89486 L -106.013 -8.50224 " />
<path d="M-104.388 -8.31363 A3 0.356018 159.141 0 1 -100.155 -10.214" />
<path d="M-102.715 -8.79359 A1.6 0.189876 159.141 0 1 -103.079 -8.78093" />
<path d="M-103.079 -8.78093 A1.6 0.189876 159.141 0 1 -102.512 -9.16216" />
<path d="M-102.402 -8.87403 A1.6 0.189876 159.141 0 1 -102.715 -8.79359" />
<path id= "125" d=" M -95.104 -9.22522 L -99.3467 -20.3595 " />
<path id= "126" d=" M -95.104 -9.22522 L -100.054 -6.78813 " />
<path id= "127" d=" M -80.9755 -24.37 L -85.8745 -23.3005 " />
<path id= "128" d=" M -85.8745 -23.3005 L -87.9958 -22.256 " />
<path id= "129" d=" M -83.0968 -23.3255 L -87.9958 -22.256 " />
<path id= "130" d=" M -80.9755 -24.37 L -83.0968 -23.3255 " />
<path id= "131" d=" M -79.9148 -14.9748 L -83.0968 -23.3255 " />
<path id= "132" d=" M -84.8138 -13.9053 L -87.9958 -22.256 " />
<path id= "133" d=" M -83.9553 -14.0928 L -84.8138 -13.9053 " />
<path id= "134" d=" M -83.9553 -14.0928 L -84.4503 -15.3918 " />
<path id= "135" d=" M -84.4503 -15.3918 L -81.2683 -16.0864 " />
<path id= "136" d=" M -80.7733 -14.7874 L -81.2683 -16.0864 " />
<path id= "137" d=" M -79.9148 -14.9748 L -80.7733 -14.7874 " />
<path id= "138" d=" M -82.7433 -13.5822 L -84.1773 -13.2691 " />
<path id= "139" d=" M -83.9651 -12.7124 L -84.1773 -13.2691 " />
<path id= "140" d=" M -85.9961 -12.2691 L -83.9651 -12.7124 " />
<path id= "141" d=" M -85.9961 -12.2691 L -86.2083 -12.8258 " />
<path id= "142" d=" M -86.2083 -12.8258 L -87.6423 -12.5127 " />
<path id= "143" d=" M -86.5816 -9.72915 L -87.6423 -12.5127 " />
<path id= "144" d=" M -81.6826 -10.7986 L -86.5816 -9.72915 " />
<path id= "145" d=" M -81.6826 -10.7986 L -82.7433 -13.5822 " />
<path d="M-80.7733 -14.7874 A3 0.356018 159.141 0 1 -84.1773 -13.2691" />
<path id= "147" d=" M -79.9148 -14.9748 L -82.7433 -13.5822 " />
<path d="M-86.2083 -12.8258 A3 0.356018 159.141 0 1 -86.2284 -12.8496" />
<path d="M-86.2284 -12.8496 A3 0.356018 159.141 0 1 -83.9553 -14.0928" />
<path id= "150" d=" M -84.8138 -13.9053 L -87.6423 -12.5127 " />
<path d="M-86.0171 -12.3241 A3 0.356018 159.141 0 1 -81.7836 -14.2245" />
<path d="M-84.3442 -12.8041 A1.6 0.189876 159.141 0 1 -84.708 -12.7914" />
<path d="M-84.708 -12.7914 A1.6 0.189876 159.141 0 1 -84.1405 -13.1726" />
<path d="M-84.0307 -12.8845 A1.6 0.189876 159.141 0 1 -84.3442 -12.8041" />
<path id= "155" d=" M -76.7329 -13.2357 L -80.9755 -24.37 " />
<path id= "156" d=" M -76.7329 -13.2357 L -81.6826 -10.7986 " />
<path id= "157" d=" M 37.1739 -71.8083 L 34.3454 -79.2311 " />
<path id= "158" d=" M 34.3454 -79.2311 L -9.74537 -69.6059 " />
<path id= "159" d=" M -67.4779 -20.2813 L -70.3064 -27.7041 " />
<path id= "160" d=" M -70.3064 -27.7041 L -114.397 -18.079 " />
<path id= "161" d=" M -111.569 -10.6561 L -114.397 -18.079 " />
<path id= "162" d=" M -67.4779 -20.2813 L -78.5006 -17.875 " />
<path id= "163" d=" M -85.7255 -16.2978 L -96.8718 -13.8645 " />
<path id= "164" d=" M -104.097 -12.2873 L -111.569 -10.6561 " />
<path id= "165" d=" M 37.1739 -71.8083 L -67.4779 -20.2813 " />
<path id= "166" d=" M 34.3454 -79.2311 L -70.3064 -27.7041 " />
<path id= "167" d=" M -9.74537 -69.6059 L -70.7069 -39.5906 " />
<path id= "168" d=" M -71.7882 -39.0582 L -114.397 -18.079 " />
<path d="M-72.9512 -30.5722 A6 0.712036 159.141 0 1 -74.3153 -30.5247" />
<path d="M-74.3153 -30.5247 A6 0.712036 159.141 0 1 -69.5215 -33.1095" />
<path d="M-68.4002 -33.5368 A6 0.712036 159.141 0 1 -63.1018 -34.7976" />
<path d="M-63.1018 -34.7976 A6 0.712036 159.141 0 1 -72.9512 -30.5722" />
<path d="M-72.4209 -29.1804 A6 0.712036 159.141 0 1 -73.785 -29.1329" />
<path d="M-62.5715 -33.4058 A6 0.712036 159.141 0 1 -72.4209 -29.1804" />
<path d="M-121.636 -170.239 A0.6 0.0712036 159.141 0 1 -121.772 -170.234" />
<path d="M-121.772 -170.234 A0.6 0.0712036 159.141 0 1 -120.651 -170.661" />
<path d="M-120.651 -170.661 A0.6 0.0712036 159.141 0 1 -121.636 -170.239" />
</g>
</g></svg>